# xmcd
#
# Track frame offsets: 
#        150
#        30461
#        63112
#        96618
#        131207
#        165888
#        199110
#        224454
#        261122
#        293234
#
# Disc length: 4390 seconds
#
# Revision: 2
# Processed by: cddbd v1.5.2PL0 Copyright (c) Steve Scherf et al.
# Submitted via: ExactAudioCopy v0.95b4
#
DISCID=9311240a
DTITLE=Pierre Desproges - Les réquisitoires du tribunal des flagrants 
DTITLE=délires (Vol. 5)
DYEAR=2001
DGENRE=Humour
TTITLE0=Catherine Allégret (02 novembre 1981)
TTITLE1=Sylvie Joly (25 janvier 1983)
TTITLE2=Paul Quilès (14 décembre 1982)
TTITLE3=Claire Bretécher (19 décembre 1982)
TTITLE4=Siné (13 décembre 1982)
TTITLE5=Jean-Marc Reiser (08 novembre 1982)
TTITLE6=Gérard Lauzier (14 novembre 1980)
TTITLE7=Jean-François Khan (10 décembre 1982)
TTITLE8=Cavanna (03 décembre 1982)
TTITLE9=Jean-Jacques Debout (25 février 1981)
EXTD=
EXTT0=
EXTT1=
EXTT2=
EXTT3=
EXTT4=
EXTT5=
EXTT6=
EXTT7=
EXTT8=
EXTT9=
PLAYORDER=
